<?xml version="1.0" encoding="UTF-8"?>
<svg width="51px" height="51px" viewBox="0 0 51 51" version="1.1" xmlns="http://www.w3.org/2000/svg" xmlns:xlink="http://www.w3.org/1999/xlink">
    <!-- Generator: Sketch 49 (51002) - http://www.bohemiancoding.com/sketch -->
    <title>Group 27</title>
    <desc>Created with Sketch.</desc>
    <defs></defs>
    <g id="Page-2" stroke="none" stroke-width="1" fill="none" fill-rule="evenodd">
        <g id="Group-27" fill="#00AEEF" fill-rule="nonzero">
            <path d="M45.881913,41.5790502 C45.1990645,41.5790502 44.5633994,41.7559879 43.9906455,42.0430202 L28.2471217,26.3204667 L36.398052,24.6756014 C37.1333265,25.9475869 38.4937808,26.8158923 40.0652498,26.8158923 C42.4086915,26.8158923 44.3156867,24.9088971 44.3156867,22.5654554 C44.3156867,20.2220138 42.4086915,18.3150185 40.0652498,18.3150185 C37.9013672,18.3150185 36.1280582,19.9480881 35.8672389,22.0431615 L27.7661133,23.6781969 L33.906507,9.33379157 C34.0218442,9.34296607 34.1332494,9.36852378 34.2512078,9.36852378 C36.5946495,9.36852378 38.5016447,7.46152856 38.5016447,5.11808688 C38.5016447,2.7746452 36.5946495,0.867649982 34.2512078,0.867649982 C31.9077662,0.867649982 30.0007709,2.7746452 30.0007709,5.11808688 C30.0007709,6.37893183 30.5630396,7.50084795 31.4385537,8.28002917 L25.3269943,22.5549701 L20.0155866,13.6871144 C20.6538729,12.9433209 21.0542763,11.9891679 21.0542763,10.9347502 C21.0542763,8.59130848 19.1472811,6.68431326 16.8038394,6.68431326 C14.4603977,6.68431326 12.5534025,8.59130848 12.5534025,10.9347502 C12.5534025,13.2781918 14.4603977,15.1851871 16.8038394,15.1851871 C17.119706,15.1851871 17.4250873,15.1452122 17.7206389,15.0796797 L22.2410697,22.6270559 L9.38556234,17.1013569 C9.39539219,16.9840538 9.4209499,16.8713379 9.4209499,16.7514134 C9.4209499,14.4079718 7.51395468,12.5009765 5.170513,12.5009765 C2.82707132,12.5009765 0.920076103,14.4079718 0.920076103,16.7514134 C0.920076103,19.0948551 2.82707132,21.0018503 5.170513,21.0018503 C6.42873669,21.0018503 7.54934211,20.4415476 8.32786811,19.5693103 L22.5838046,25.6965975 L13.7401959,30.9876902 C12.9964022,30.3494039 12.0422492,29.948345 10.9871763,29.948345 C8.6437346,29.948345 6.73673938,31.8553402 6.73673938,34.1987819 C6.73673938,36.5422235 8.6437346,38.4492188 10.9871763,38.4492188 C13.330618,38.4492188 15.2376132,36.5422235 15.2376132,34.1987819 C15.2376132,33.8842259 15.1976383,33.5788445 15.1327612,33.2839484 L23.7987768,28.0977077 L21.8590152,41.6563786 C19.8773129,42.0154966 18.3674445,43.7455541 18.3674445,45.8294871 C18.3674445,48.1729288 20.2744397,50.079924 22.6178814,50.079924 C24.9613231,50.079924 26.8683183,48.1729288 26.8683183,45.8294871 C26.8683183,44.1702047 25.9036802,42.7455284 24.5143916,42.0456416 L26.4751235,28.3441099 L42.092825,43.9434623 C41.8071034,44.5135949 41.6314764,45.14926 41.6314764,45.8294871 C41.6314764,48.1729288 43.5384716,50.079924 45.8819133,50.079924 C48.2253549,50.079924 50.1323502,48.1729288 50.1323502,45.8294871 C50.1323502,43.4860455 48.2253547,41.5790502 45.881913,41.5790502 Z M34.2512078,3.55186064 C35.114926,3.55186064 35.8174342,4.25436887 35.8174342,5.11808702 C35.8174342,5.98180517 35.114926,6.68431339 34.2512078,6.68431339 C33.3874897,6.68431339 32.6849815,5.98180517 32.6849815,5.11808702 C32.6849815,4.25436887 33.3874897,3.55186064 34.2512078,3.55186064 Z M5.170513,18.3176398 C4.30679485,18.3176398 3.60428663,17.6151316 3.60428663,16.7514134 C3.60428663,15.8876953 4.30679485,15.1851871 5.170513,15.1851871 C6.03423115,15.1851871 6.73673938,15.8876953 6.73673938,16.7514134 C6.73673938,17.6151316 6.03423115,18.3176398 5.170513,18.3176398 Z M40.0652498,20.9992291 C40.928968,20.9992291 41.6314762,21.7017373 41.6314762,22.5654554 C41.6314762,23.4291736 40.928968,24.1316818 40.0652498,24.1316818 C39.2015317,24.1316818 38.4990235,23.4291736 38.4990235,22.5654554 C38.4990235,21.7017373 39.2015317,20.9992291 40.0652498,20.9992291 Z M15.237613,10.9347502 C15.237613,10.071032 15.9401213,9.36852378 16.8038394,9.36852378 C17.6675576,9.36852378 18.3700658,10.071032 18.3700658,10.9347502 C18.3700658,11.7984683 17.6675576,12.5009765 16.8038394,12.5009765 C15.9401213,12.5009765 15.237613,11.7984683 15.237613,10.9347502 Z M10.9871761,35.7650082 C10.123458,35.7650082 9.42094977,35.0625 9.42094977,34.1987819 C9.42094977,33.3350637 10.123458,32.6325555 10.9871761,32.6325555 C11.8508943,32.6325555 12.5534025,33.3350637 12.5534025,34.1987819 C12.5534025,35.0625 11.8508943,35.7650082 10.9871761,35.7650082 Z M22.6178814,47.3957134 C21.7541633,47.3957134 21.0516551,46.6932051 21.0516551,45.829487 C21.0516551,44.9657688 21.7541633,44.2632606 22.6178814,44.2632606 C23.4815996,44.2632606 24.1841078,44.9657688 24.1841078,45.829487 C24.1841078,46.6932051 23.4815996,47.3957134 22.6178814,47.3957134 Z M45.881913,47.3957134 C45.0181948,47.3957134 44.3156866,46.6932051 44.3156866,45.829487 C44.3156866,44.9657688 45.0181948,44.2632606 45.881913,44.2632606 C46.7456311,44.2632606 47.4481394,44.9657688 47.4481394,45.829487 C47.4481394,46.6932051 46.7456311,47.3957134 45.881913,47.3957134 Z" id="Shape"></path>
        </g>
    </g>
</svg>