<?xml version="1.0" encoding="UTF-8"?>
<svg width="52px" height="51px" viewBox="0 0 52 51" version="1.1" xmlns="http://www.w3.org/2000/svg" xmlns:xlink="http://www.w3.org/1999/xlink">
    <!-- Generator: Sketch 49 (51002) - http://www.bohemiancoding.com/sketch -->
    <title>Group 29</title>
    <desc>Created with Sketch.</desc>
    <defs></defs>
    <g id="Page-2" stroke="none" stroke-width="1" fill="none" fill-rule="evenodd">
        <g id="Group-29" fill="#00AEEF" fill-rule="nonzero">
            <path d="M45.9,36.6633333 L45.9,32.81 C45.9,27.7666667 41.99,23.2333333 37.0033333,23.2333333 L15.13,23.2333333 C12.1266667,23.2333333 9.63333333,21.25 9.63333333,18.19 L9.63333333,14.3366667 C12.4666667,13.5433333 15.13,10.6533333 15.13,7.31 C15.13,3.28666667 11.8433333,0 7.87666667,0 C3.91,0 0.396666667,3.28666667 0.396666667,7.31 C0.396666667,10.71 2.26666667,13.5433333 5.66666667,14.3366667 L5.66666667,18.19 C5.66666667,23.2333333 10.1433333,27.7666667 15.13,27.7666667 L16.4333333,27.7666667 L16.4333333,36.6633333 C13.6,37.4566667 11.22,40.3466667 11.22,43.69 C11.22,47.7133333 14.62,51 18.6433333,51 C22.6666667,51 25.8966667,47.7133333 25.8966667,43.69 C25.8966667,40.29 23.8,37.4566667 20.4,36.6633333 L20.4,27.7666667 L37.0033333,27.7666667 C40.0066667,27.7666667 41.9333333,29.75 41.9333333,32.81 L41.9333333,36.6633333 C39.1,37.4566667 36.72,40.3466667 36.72,43.69 C36.72,47.7133333 40.12,51 44.1433333,51 C48.1666667,51 51.3966667,47.7133333 51.3966667,43.69 C51.3966667,40.3466667 49.3,37.4566667 45.9,36.6633333 Z M4.25,7.31 C4.25,5.32666667 5.89333333,3.68333333 7.87666667,3.68333333 C9.86,3.68333333 11.5033333,5.32666667 11.5033333,7.31 C11.5033333,9.29333333 9.86,10.9366667 7.87666667,10.9366667 C5.89333333,10.9366667 4.25,9.29333333 4.25,7.31 Z M22.44,43.69 C22.44,45.6733333 20.7966667,47.3166667 18.8133333,47.3166667 C16.83,47.3166667 15.1866667,45.6733333 15.1866667,43.69 C15.1866667,41.7066667 16.83,40.0633333 18.8133333,40.0633333 C20.7966667,40.0633333 22.44,41.7066667 22.44,43.69 Z M44.2566667,47.3166667 C42.2733333,47.3166667 40.63,45.6733333 40.63,43.69 C40.63,41.7066667 42.2733333,40.0633333 44.2566667,40.0633333 C46.24,40.0633333 47.8833333,41.7066667 47.8833333,43.69 C47.8833333,45.73 46.2966667,47.3166667 44.2566667,47.3166667 Z" id="Shape"></path>
        </g>
    </g>
</svg>