<?xml version="1.0" encoding="UTF-8"?>
<svg width="51px" height="51px" viewBox="0 0 51 51" version="1.1" xmlns="http://www.w3.org/2000/svg" xmlns:xlink="http://www.w3.org/1999/xlink">
    <!-- Generator: Sketch 49 (51002) - http://www.bohemiancoding.com/sketch -->
    <title>Group 28</title>
    <desc>Created with Sketch.</desc>
    <defs></defs>
    <g id="Page-2" stroke="none" stroke-width="1" fill="none" fill-rule="evenodd">
        <g id="Group-28" fill="#00AEEF" fill-rule="nonzero">
            <path d="M25.5,0.242857143 C11.5508652,0.242857143 0.242857143,11.5508652 0.242857143,25.5 C0.242857143,39.4491348 11.5508652,50.7571429 25.5,50.7571429 C39.4491348,50.7571429 50.7571429,39.4491348 50.7571429,25.5 C50.7237648,11.5647142 39.4352858,0.276235216 25.5,0.242857143 Z M25.5,47.175 C13.5706734,47.1749529 3.8969474,37.5102169 3.88580898,25.5808956 C3.87467056,13.6515742 13.5303318,3.96879031 25.4596375,3.94646642 C37.3889432,3.92414253 47.0807764,13.5707205 47.1142857,25.5 C47.0809334,37.4233981 37.4233981,47.0809334 25.5,47.1142857 L25.5,47.175 Z" id="Shape"></path>
            <path d="M25.5,8.19642857 C15.9435014,8.19642857 8.19642857,15.9435014 8.19642857,25.5 C8.1964286,26.5059472 9.01190994,27.3214285 10.0178571,27.3214285 C11.0238043,27.3214285 11.8392857,26.5059472 11.8392857,25.5 C11.8211741,20.3044074 14.7648257,15.5524813 19.4247699,13.2547802 C24.0847142,10.9570792 29.6465888,11.5151447 33.7571429,14.6928571 L27.625,20.825 C25.3538994,19.7876174 22.6658665,20.5248808 21.2418023,22.575759 C19.8177381,24.6266373 20.0661225,27.4028548 21.8316338,29.1683662 C23.5971452,30.9338775 26.3733627,31.1822619 28.424241,29.7581977 C30.4751192,28.3341335 31.2123826,25.6461006 30.175,23.375 L36.3071429,17.2428571 C38.1445939,19.6043138 39.148046,22.5079199 39.1607143,25.5 C39.1607143,26.5059472 39.9761956,27.3214286 40.9821429,27.3214286 C41.9880901,27.3214286 42.8035714,26.5059472 42.8035714,25.5 C42.8035714,15.9435014 35.0564986,8.19642857 25.5,8.19642857 Z M25.5,26.9571429 C24.8806643,26.9566472 24.3237473,26.5799166 24.0928178,26.0052441 C23.8618883,25.4305715 24.0032693,24.7732331 24.4500504,24.3443233 C24.8968315,23.9154135 25.5593908,23.8009691 26.1241631,24.0551526 C26.6889353,24.3093362 27.0426304,24.8811597 27.0178571,25.5 C27.0178571,26.3382894 26.3382894,27.0178571 25.5,27.0178571 L25.5,26.9571429 Z" id="Shape"></path>
        </g>
    </g>
</svg>