<?xml version="1.0" encoding="UTF-8"?>
<svg width="49px" height="51px" viewBox="0 0 49 51" version="1.1" xmlns="http://www.w3.org/2000/svg" xmlns:xlink="http://www.w3.org/1999/xlink">
    <!-- Generator: Sketch 49 (51002) - http://www.bohemiancoding.com/sketch -->
    <title>Group 37</title>
    <desc>Created with Sketch.</desc>
    <defs></defs>
    <g id="Page-2" stroke="none" stroke-width="1" fill="none" fill-rule="evenodd">
        <g id="Group-37" fill="#3E4244" fill-rule="nonzero">
            <path d="M43.2654023,21.5756242 L38.2555787,10.9042552 C40.1486084,8.83303374 40.5019883,5.78011463 39.132268,3.33036215 C37.7625477,0.880609664 34.9783511,-0.414000718 32.2250402,0.118603078 C29.4717294,0.651206875 27.3696773,2.89101916 27.0101238,5.67528447 L12.2471332,7.64948772 C10.7437375,5.00398409 7.60992499,3.75460856 4.70155861,4.64124895 C1.79319222,5.52788934 -0.113226194,8.31382241 0.111295987,11.3492016 C0.335818169,14.3845807 2.63133599,16.8589931 5.63842978,17.3070766 L5.53183779,30.9664288 C2.68835112,31.3961843 0.464571404,33.64489 0.0637768104,36.4957804 C-0.337017783,39.3466708 1.18037905,42.1225343 3.79491006,43.3213625 C6.40944106,44.5201907 9.50004037,43.8572092 11.3943972,41.6911546 L24.0788441,47.400337 C25.5706644,50.3875541 29.0785654,51.7598556 32.1981542,50.5766355 C35.3177431,49.3934155 37.0367955,46.0385977 36.1770349,42.8116483 L41.8264104,34.4879806 L42.6258503,34.4879806 C46.0318386,34.4207889 48.8085892,31.7331273 48.9905777,28.3274584 C49.1725662,24.9217895 46.6980856,21.9528771 43.3186983,21.5222673 L43.2654023,21.5756242 Z M33.4056432,3.32758331 C35.2305862,3.32758331 36.7099949,4.80868104 36.7099949,6.63570768 C36.7099949,8.46273431 35.2305862,9.94383204 33.4056432,9.94383204 C31.5807001,9.94383204 30.1012915,8.46273431 30.1012915,6.63570768 C30.1012915,4.80868104 31.5807001,3.32758331 33.4056432,3.32758331 Z M30.0479955,38.3830302 C28.6890052,38.3827135 27.3646497,38.8122198 26.2639798,39.6102376 L19.0157245,26.9113086 L30.0479955,12.1848195 L31.2738034,12.7717448 L31.1672114,38.4897439 L30.0479955,38.3830302 Z M27.3298997,8.82333831 C27.4601054,9.17455746 27.620599,9.51376419 27.8095637,9.83711835 L17.2569567,23.8699685 L11.9273572,14.5858775 C12.6949207,13.4923939 13.1046001,12.1873803 13.0998691,10.8508984 L13.0998691,10.7975416 L27.3298997,8.82333831 Z M10.8081413,32.5137773 C10.1978475,31.9784515 9.49286123,31.5622158 8.72959749,31.2865699 L8.83618948,16.9869355 L9.47574142,16.7201513 L15.1784129,26.6978812 L10.8081413,32.5137773 Z M3.346702,10.9042552 C3.346702,9.07722861 4.82611064,7.59613088 6.65105369,7.59613088 C8.47599673,7.59613088 9.95540538,9.07722861 9.95540538,10.9042552 C9.95540538,12.7312819 8.47599673,14.2123796 6.65105369,14.2123796 C5.77468513,14.2123796 4.93421035,13.8638461 4.3145242,13.2434524 C3.69483805,12.6230588 3.346702,11.7816244 3.346702,10.9042552 Z M6.5444617,40.6773745 C4.71951865,40.6773745 3.24011001,39.1962768 3.24011001,37.3692502 C3.24011001,35.5422235 4.71951865,34.0611258 6.5444617,34.0611258 C8.36940474,34.0611258 9.84881339,35.5422235 9.84881339,37.3692502 C9.84881339,38.2466193 9.50067733,39.0880537 8.88099118,39.7084473 C8.26130504,40.328841 7.42083025,40.6773745 6.5444617,40.6773745 Z M12.6735011,35.3416901 L16.8838847,29.6858645 L24.0788441,42.224723 C23.8771645,42.7037204 23.7340054,43.2053494 23.6524761,43.7187147 L12.8333891,38.8632418 C13.1029667,37.7147563 13.0476008,36.5137904 12.6735011,35.3950469 L12.6735011,35.3416901 Z M30.0479955,48.1473328 C28.2230524,48.1473328 26.7436438,46.666235 26.7436438,44.8392084 C26.7436438,43.0121818 28.2230524,41.531084 30.0479955,41.531084 C31.8729385,41.531084 33.3523472,43.0121818 33.3523472,44.8392084 C33.3523472,46.666235 31.8729385,48.1473328 30.0479955,48.1473328 Z M34.3649711,39.9303787 L34.4715631,13.038529 L35.590779,12.718388 L40.0143466,22.1091926 C37.8878006,23.0302479 36.4182685,25.0226414 36.164815,27.3283923 C35.9113614,29.6341432 36.9129498,31.8987886 38.7885387,33.2607731 L34.3649711,39.9303787 Z M42.6258503,31.3932836 C40.8012527,31.4225085 39.2984166,29.9654673 39.2690667,28.138789 C39.2397169,26.3121107 40.6949661,24.8074324 42.5195587,24.7778907 C44.3441512,24.7483489 45.8472397,26.2051292 45.876906,28.0318024 C45.876906,29.858829 44.3974974,31.3399267 42.5725543,31.3399267 L42.6258503,31.3932836 Z" id="Shape"></path>
        </g>
    </g>
</svg>