<?xml version="1.0" encoding="UTF-8"?>
<svg width="51px" height="51px" viewBox="0 0 51 51" version="1.1" xmlns="http://www.w3.org/2000/svg" xmlns:xlink="http://www.w3.org/1999/xlink">
    <!-- Generator: Sketch 49 (51002) - http://www.bohemiancoding.com/sketch -->
    <title>Group 38</title>
    <desc>Created with Sketch.</desc>
    <defs></defs>
    <g id="Page-2" stroke="none" stroke-width="1" fill="none" fill-rule="evenodd">
        <g id="Group-38" fill="#3E4244" fill-rule="nonzero">
            <path d="M25.5,51 C11.4167389,51 2.20961461e-15,39.5832611 0,25.5 C-1.1048073e-15,11.4167389 11.4167389,3.31442191e-15 25.5,0 C39.5832611,-2.20961461e-15 51,11.4167389 51,25.5 C51,32.2630205 48.3134006,38.7490453 43.5312229,43.5312229 C38.7490453,48.3134006 32.2630205,51 25.5,51 Z M25.5,3.73170732 C13.4777039,3.73170732 3.73170732,13.4777039 3.73170732,25.5 C3.73170732,37.5222961 13.4777039,47.2682927 25.5,47.2682927 C37.5222961,47.2682927 47.2682927,37.5222961 47.2682927,25.5 C47.2682927,13.4777039 37.5222961,3.73170732 25.5,3.73170732 Z" id="Shape"></path>
            <path d="M25.0001003,51 C17.0057989,51 10.7368421,39.804878 10.7368421,25.5 C10.7368421,11.195122 17.0057989,0 25.0001003,0 C26.0174116,0 26.8421053,0.835371138 26.8421053,1.86585366 C26.8421053,2.89633618 26.0174116,3.73170732 25.0001003,3.73170732 C19.265325,3.73170732 14.420852,13.6829268 14.420852,25.5 C14.420852,37.3170732 19.265325,47.2682927 25.0001003,47.2682927 C26.0174116,47.2682927 26.8421053,48.1036638 26.8421053,49.1341463 C26.8421053,50.1646289 26.0174116,51 25.0001003,51 Z" id="Shape"></path>
            <path d="M25.9998997,51 C24.9825884,51 24.1578947,50.1646289 24.1578947,49.1341463 C24.1578947,48.1036638 24.9825884,47.2682927 25.9998997,47.2682927 C31.734675,47.2682927 36.579148,37.3170732 36.579148,25.5 C36.579148,13.6829268 31.734675,3.73170732 25.9998997,3.73170732 C24.9825884,3.73170732 24.1578947,2.89633618 24.1578947,1.86585366 C24.1578947,0.835371138 24.9825884,0 25.9998997,0 C33.9942011,0 40.2631579,11.195122 40.2631579,25.5 C40.2631579,39.804878 33.9942011,51 25.9998997,51 Z" id="Shape"></path>
            <path d="M26.0313905,16.1052632 C18.8005174,16.1052632 11.9113093,14.4136047 7.12799983,11.4686372 C6.26591282,10.9245622 6.00497084,9.79228181 6.54284402,8.92952707 C7.08071721,8.06677233 8.21704052,7.79493105 9.09102035,8.31992988 C13.2966055,10.912983 19.4714232,12.4009016 26.0313905,12.4009016 C32.4733281,12.4009016 38.5798128,10.9562005 42.8040342,8.43723466 C43.6857608,7.90872025 44.8316347,8.19066513 45.3634153,9.06697617 C45.895196,9.94328721 45.6115087,11.0821233 44.7297822,11.6106378 C39.9402606,14.4691701 33.1318097,16.1052632 26.0313905,16.1052632 Z" id="Shape"></path>
            <path d="M8.14921236,42.9472578 C7.30746839,42.9563304 6.56385686,42.4066304 6.33413493,41.6054981 C6.10441301,40.8043657 6.44549611,39.9502879 7.16668287,39.520784 C11.9549595,36.5802913 18.8513215,34.8947368 26.0897032,34.8947368 C33.0731248,34.8947368 39.8078047,36.4818647 44.5587701,39.250111 C45.1971873,39.5465833 45.6120259,40.1738593 45.630907,40.8712856 C45.6497882,41.5687118 45.269484,42.2170538 44.648023,42.5469046 C44.026562,42.8767554 43.2701915,42.8317225 42.6932078,42.4305185 C38.4956926,39.9698551 32.4512707,38.5857319 26.1145774,38.5857319 C19.5477981,38.5857319 13.3727868,40.0682816 9.156616,42.6519782 C8.85634702,42.8438493 8.50667566,42.9463413 8.14921236,42.9472578 Z" id="Shape"></path>
            <path d="M25.0526316,51 C24.0643326,51 23.2631579,50.1646289 23.2631579,49.1341463 L23.2631579,1.86585366 C23.2631579,0.835371138 24.0643326,0 25.0526316,0 C26.0409306,0 26.8421053,0.835371138 26.8421053,1.86585366 L26.8421053,49.1341463 C26.8421053,50.1646289 26.0409306,51 25.0526316,51 Z" id="Shape"></path>
            <path d="M49.1341463,26.8421053 L1.86585358,26.8421053 C0.835371091,26.8421052 0,26.0409306 0,25.0526316 C0,24.0643326 0.835371091,23.2631579 1.86585358,23.2631579 L49.1341463,23.2631579 C50.1646289,23.2631579 51,24.0643326 51,25.0526316 C51,26.0409306 50.1646289,26.8421053 49.1341463,26.8421053 Z" id="Shape"></path>
        </g>
    </g>
</svg>