<?xml version="1.0" encoding="UTF-8"?>
<svg width="37px" height="50px" viewBox="0 0 37 50" version="1.1" xmlns="http://www.w3.org/2000/svg" xmlns:xlink="http://www.w3.org/1999/xlink">
    <!-- Generator: Sketch 49 (51002) - http://www.bohemiancoding.com/sketch -->
    <title>Group 40</title>
    <desc>Created with Sketch.</desc>
    <defs></defs>
    <g id="Page-2" stroke="none" stroke-width="1" fill="none" fill-rule="evenodd">
        <g id="Group-40" fill="#3E4244" fill-rule="nonzero">
            <path d="M11.4223533,38 C11.4223533,38 9.49666803,39.0759977 12.792798,39.4401012 C16.7859668,39.8778085 18.8268291,39.8150365 23.2273283,39.0147918 C23.2273283,39.0147918 24.3842607,39.7118086 26,40.3155157 C16.1352432,44.3778149 3.67411182,40.0802187 11.4223533,38" id="Shape"></path>
            <path d="M10.657832,33 C10.657832,33 8.54123918,34.5671403 11.7737618,34.9015772 C15.9539728,35.3329368 19.2551762,35.3682178 24.9675278,34.2679844 C24.9675278,34.2679844 25.7576231,35.069195 27,35.5073446 C15.3117541,38.926003 2.29315076,35.7769444 10.657832,33" id="Shape"></path>
            <path d="M21.1816275,23.7164108 C23.5601652,26.4974319 20.5566899,29 20.5566899,29 C20.5566899,29 26.5962031,25.8337608 23.8225273,21.8688755 C21.232,18.1713754 19.2454107,16.3342332 30,10 C30,10 13.1188422,14.2816711 21.1816275,23.7164108" id="Shape"></path>
            <path d="M33.0545608,42.3976513 C33.0545608,42.3976513 34.4410805,43.4931621 31.5275655,44.3406781 C25.9874335,45.9500461 8.46894483,46.4360245 3.60238229,44.4047994 C1.8529782,43.675008 5.13360643,42.6622466 6.16556719,42.449734 C7.24179826,42.2259432 7.8568252,42.2676347 7.8568252,42.2676347 C5.91131024,40.9534019 -4.71818952,44.8481993 2.45756528,45.9636053 C22.0268926,49.0068315 38.1305814,44.5932348 33.0545608,42.3976513" id="Shape"></path>
            <path d="M12.7381922,27.0092474 C12.7381922,27.0092474 3.69380983,29.4617527 9.53535068,30.3523478 C12.0018297,30.7293501 16.9186924,30.6440575 21.4986257,30.205957 C25.2416005,29.8454927 29,29.0790847 29,29.0790847 C29,29.0790847 27.6801809,29.724368 26.725324,30.4687255 C17.540912,33.2264158 -0.201668464,31.9435056 4.90619245,29.1227264 C9.22591748,26.7388226 12.7381922,27.0092474 12.7381922,27.0092474" id="Shape"></path>
            <path d="M29.1898128,36.7503471 C38.6340531,31.796868 34.267408,27.0366198 31.2195484,27.6779387 C30.472508,27.8348789 30.1394197,27.9708665 30.1394197,27.9708665 C30.1394197,27.9708665 30.4167446,27.5323649 30.9464296,27.3425575 C36.9760739,25.2029109 41.6132599,33.653173 29,37 C29,37.0001368 29.1461247,36.8682577 29.1898128,36.7503471" id="Shape"></path>
            <path d="M23.6557806,0 C23.6557806,0 28.8949796,5.11546133 18.6866279,12.9815958 C10.5005663,19.2915889 16.8199509,22.889378 18.6832303,27 C13.9048905,22.7920114 10.3982287,19.0877027 12.7507717,15.6400757 C16.2037505,10.579267 25.7696717,8.12560185 23.6557806,0" id="Shape"></path>
            <path d="M14.0155595,49.8341169 C22.9520285,50.4424351 36.6749889,49.4966049 37,45 C37,45 36.3752564,46.7046279 29.6144895,48.058374 C21.9870263,49.5847875 12.5796255,49.4065732 7,48.4283145 C7.00013375,48.4281723 8.14222024,49.4335969 14.0155595,49.8341169" id="Shape"></path>
        </g>
    </g>
</svg>