<?xml version="1.0" encoding="UTF-8"?>
<svg width="202px" height="30px" viewBox="0 0 202 30" version="1.1" xmlns="http://www.w3.org/2000/svg" xmlns:xlink="http://www.w3.org/1999/xlink">
    <!-- Generator: Sketch 49.3 (51167) - http://www.bohemiancoding.com/sketch -->
    <title>Asset 1</title>
    <desc>Created with Sketch.</desc>
    <defs></defs>
    <g id="Page-1" stroke="none" stroke-width="1" fill="none" fill-rule="evenodd">
        <g id="Bw-1_0_2_3" transform="translate(-121.000000, -40.000000)" fill-rule="nonzero">
            <g id="Asset-1" transform="translate(121.000000, 40.000000)">
                <g id="Group" transform="translate(0.000000, 1.000000)">
                    <path d="M86.3043307,0 L82.2295276,22.3096774 L82.0484252,22.3096774 L77.7291339,0 L52.6102362,0 L48.2909449,22.3096774 L48.1098425,22.3096774 L44.0350394,0 L36.6370079,0 C35.9035433,5.80774194 31.9464567,10.0890323 28.1251969,12.4916129 C35.2968504,14.2980645 39.1633858,20.476129 39.1633858,27.6296774 C39.1633858,27.7470968 39.1633858,27.8554839 39.1633858,27.963871 L61.3484252,27.963871 L65.0429134,9.18580645 L65.1968504,9.18580645 L68.9547244,28 L97.9311024,28 L97.9311024,0 L86.3043307,0 Z" id="Shape" fill="#009DE0"></path>
                    <path d="M9.05511811,7.90322581 C13.3834646,7.90322581 16.5074803,5.97935484 16.5074803,2.12258065 C16.526786,1.40272805 16.4226637,0.684875821 16.1996063,0 L0.0633858268,0 L0.0633858268,7.90322581 L9.05511811,7.90322581 Z" id="Shape" fill="#009DE0"></path>
                    <path d="M6.96338583,19.9251613 L0.0633858268,19.9251613 L0.0633858268,28 L18.6716535,28 C18.8439538,27.3825317 18.9292863,26.7441534 18.9251969,26.1032258 C18.9251969,20.3225806 13.8633858,19.9522581 6.96338583,19.9522581" id="Shape" fill="#009DE0"></path>
                    <path d="M107.257874,14.1769969 L108.163386,14.1769969 C109.729921,14.1769969 110.191732,13.5718356 110.191732,12.0092549 C110.191732,10.4466743 109.729921,9.76925494 108.262992,9.76925494 L107.257874,9.76925494 L107.257874,14.1769969 Z M107.257874,6.67119042 L108.48937,6.67119042 C109.666535,6.67119042 110.128346,6.09312591 110.128346,4.72022268 C110.191201,4.27258305 110.037736,3.82170706 109.714642,3.5047705 C109.391548,3.18783394 108.93703,3.04231277 108.48937,3.11248075 L107.257874,3.11248075 L107.257874,6.67119042 Z M103.228346,0.00538397309 L109.883858,0.00538397309 C111.046775,-0.0544072429 112.179576,0.38604229 112.995145,1.21509686 C113.810714,2.04415142 114.23076,3.18222674 114.148819,4.34086784 C114.148819,6.6982872 112.7,7.80925494 111.785433,7.95377107 C113.406299,8.63119042 114.320866,9.76022268 114.320866,12.1357066 C114.320866,15.3602227 112.582283,17.2389324 109.041732,17.2389324 L103.228346,17.2389324 L103.228346,0.00538397309 Z" id="Shape" fill="#222221"></path>
                </g>
                <rect id="Rectangle-path" fill="#222221" x="116" y="1" width="4" height="17"></rect>
                <polygon id="Shape" fill="#222221" points="128.992883 18 125.220641 18 125.220641 4.22582331 122 4.22582331 122 1 132 1 132 4.22582331 128.992883 4.22582331"></polygon>
                <g id="Group" transform="translate(133.000000, 0.000000)" fill="#222221">
                    <path d="M3.99591837,0.904761905 L4.83102041,9.95238095 C4.9477551,11.2280952 4.97469388,13.9242857 5.04653061,15.1547619 L5.09142857,15.1547619 C5.26204082,12.9652381 5.37877551,10.6309524 5.47755102,10.0247619 L6.88734694,0.977142857 L10.6677551,0.977142857 L11.9338776,10.0247619 C12.1044898,11.2280952 12.1673469,13.5171429 12.2661224,15.1366667 L12.3110204,15.1366667 C12.3828571,13.7161905 12.4277551,11.282381 12.5714286,10.0247619 L13.5502041,0.977142857 L17.357551,0.977142857 L14.4661224,18.2490476 L9.97632653,18.2490476 L9.07836735,9.71714286 C8.97959184,8.81238095 8.84489796,5.79047619 8.76408163,3.98095238 L8.71918367,3.98095238 C8.60244898,6.2247619 8.43183673,8.92095238 8.33306122,9.71714286 L7.24653061,18.2490476 L2.89142857,18.2490476 L0,0.904761905 L3.99591837,0.904761905 Z" id="Shape"></path>
                    <path d="M23.0057143,4.59619048 L23.0057143,13.3633333 C23.0057143,14.1628313 23.6489623,14.8109524 24.442449,14.8109524 C25.2359356,14.8109524 25.8791837,14.1628313 25.8791837,13.3633333 L25.8791837,4.59619048 C25.8791837,3.79669255 25.2359356,3.14857143 24.442449,3.14857143 C23.6489623,3.14857143 23.0057143,3.79669255 23.0057143,4.59619048 M30.0097959,4.88571429 L30.0097959,12.6485714 C30.0097959,16.0957143 28.3126531,18.0771429 24.4334694,18.0771429 C20.5542857,18.0771429 18.8571429,16.077619 18.8571429,12.6485714 L18.8571429,4.86761905 C18.8571429,2.15333333 20.5542857,0 24.4514286,0 C28.3485714,0 30.0008163,2.18952381 30.0008163,4.8947619" id="Shape"></path>
                    <path d="M36.4661224,8.35095238 L37.5167347,8.35095238 C38.522449,8.35095238 39.2138776,7.7447619 39.2138776,6.17952381 C39.2138776,4.61428571 38.522449,4.00809524 37.4897959,4.00809524 L36.4661224,4.00809524 L36.4661224,8.35095238 Z M36.4661224,18.2038095 L32.3265306,18.2038095 L32.3265306,0.904761905 L38.8457143,0.904761905 C41.4318367,0.904761905 43.3355102,2.37952381 43.3355102,5.26571429 C43.3355102,7.88952381 42.5902041,8.8847619 40.9918367,9.65380952 C42.3702159,10.0013389 43.28743,11.3144201 43.1469388,12.7390476 L43.1469388,16.0414286 C43.1469388,17.29 43.5330612,17.6519048 43.8922449,17.6519048 L43.8922449,18.2490476 L40.3004082,18.2490476 C39.2497959,18.2490476 39.0612245,17.3442857 39.0612245,16.0052381 L39.0612245,13.1280952 C39.0612245,12.0242857 38.7020408,11.4633333 37.4089796,11.4633333 L36.5110204,11.4633333 L36.4661224,18.2038095 Z" id="Shape"></path>
                </g>
                <polygon id="Shape" fill="#222221" points="182.826466 7.77156299 185.633122 1 190 1 186.312995 8.50914794 190 18 185.772583 18 183.916006 12.0815473 182.826466 14.0454783 182.826466 18 179 18 179 1 182.826466 1"></polygon>
                <g id="Group" transform="translate(103.000000, 0.000000)" fill="#222221">
                    <path d="M91.989,11.9818182 L91.989,13.0727273 C91.989,14.6454545 92.592,15.0545455 93.591,15.0545455 C94.428,15.0545455 94.959,14.4272727 94.959,13.3636364 C94.959,12.3 94.428,11.7454545 93.375,11.0909091 L90.882,9.54545455 C89.2656592,8.52427407 88.3276299,6.69545149 88.434,4.77272727 C88.434,1.7 90.45,0 93.537,0 C96.336,0 98.694,1.54545455 98.694,5.32727273 L98.694,5.61818182 L94.959,5.61818182 L94.959,5.25454545 C94.959,3.75454545 94.41,3.12727273 93.501,3.12727273 C93.155947,3.0962904 92.8150411,3.22135186 92.5700897,3.46877749 C92.3251383,3.71620312 92.2013275,4.06055256 92.232,4.40909091 C92.2009109,5.31888888 92.7369331,6.15102972 93.573,6.49090909 L96.138,8.06363636 C97.8720788,8.99114655 98.8838721,10.880975 98.703,12.8545455 C98.703,16.4909091 96.759,18.1818182 93.501,18.1818182 C89.901,18.1818182 88.2,16.5090909 88.2,13.2636364 L88.2,11.9818182 L91.989,11.9818182 Z" id="Shape"></path>
                    <path d="M0.9,26.5175715 C0.9,27.6902988 1.233,28.4357533 2.394,28.4357533 C3.294,28.4357533 3.897,28.0448442 3.897,27.1084806 C3.897,26.172117 3.411,25.8266624 2.61,25.5175715 L1.449,25.072117 C0.591865978,24.7632815 0.06361038,23.892884 0.18,22.9812079 C0.156819998,22.4076002 0.379899467,21.8518049 0.791991981,21.4564497 C1.20408449,21.0610944 1.76507402,20.864666 2.331,20.9175715 C2.93731531,20.8653808 3.53582966,21.0841288 3.96870264,21.5161273 C4.40157563,21.9481258 4.62534565,22.5500009 4.581,23.1630261 L3.681,23.1630261 C3.681,22.2539352 3.249,21.7084806 2.376,21.7084806 C2.02769695,21.6631783 1.67781069,21.7795561 1.42430022,22.0250312 C1.17078974,22.2705064 1.04090121,22.6186963 1.071,22.972117 C1.071,23.7084806 1.26,24.0266624 1.764,24.2175715 L3.024,24.6993897 C4.08397939,24.9322714 4.83597152,25.8855543 4.824,26.9812079 C4.824,28.4902988 3.924,29.2448442 2.385,29.2448442 C0.846,29.2448442 0,28.2539352 0,26.5175715 L0.9,26.5175715 Z" id="Shape"></path>
                    <path d="M8.874,21.7090909 C7.524,21.7090909 7.209,23.1181818 7.209,24.9 C7.209,27.2181818 7.452,28.4363636 8.901,28.4363636 C10.35,28.4363636 10.602,27.2181818 10.602,24.9090909 C10.602,23.0909091 10.269,21.7090909 8.883,21.7090909 M6.3,25.0454545 C6.3,23.2272727 6.597,20.9090909 8.901,20.9090909 C11.205,20.9090909 11.511,23.2181818 11.511,25.0454545 C11.511,27.2545455 11.205,29.2363636 8.901,29.2363636 C6.597,29.2363636 6.3,27.2454545 6.3,25.0454545" id="Shape"></path>
                </g>
                <polygon id="Shape" fill="#222221" points="116 21 116 29 116.941748 29 116.941748 25.2004556 119.786408 25.2004556 119.786408 24.3986333 116.941748 24.3986333 116.941748 21.8018223 120 21.8018223 120 21"></polygon>
                <polygon id="Shape" fill="#222221" points="121 21 121 21.8018223 123.065217 21.8018223 123.065217 29 123.943841 29 123.943841 21.8018223 126 21.8018223 126 21"></polygon>
                <path d="M126.949733,21 L127.93369,26.4545455 C128.036563,27.0559398 128.107974,27.662932 128.147594,28.2727273 C128.224599,27.6636364 128.275936,27.0909091 128.387166,26.5 L129.516578,21 L130.551872,21 L131.544385,26.4545455 C131.638503,26.9909091 131.68984,27.5181818 131.766845,28.2727273 C131.84385,27.6636364 131.895187,27.0727273 132.006417,26.5 L133.084492,21 L134,21 L132.237433,29 L131.227807,29 L130.226738,23.5454545 C130.124109,22.8954558 130.055554,22.2398997 130.02139,21.5818182 C129.977202,22.2402521 129.900088,22.8957232 129.790374,23.5454545 L128.660963,29 L127.608556,29 L126,21 L126.949733,21 Z" id="Shape" fill="#222221"></path>
                <path d="M137.9856,21.6636364 L139.0704,25.9090909 L136.872,25.9090909 L137.9856,21.6636364 Z M137.4,21 L135,28.9818182 L136.0272,28.9818182 L136.6416,26.7090909 L139.3008,26.7090909 L139.9728,29 L141,29 L138.6384,21 L137.4,21 Z" id="Shape" fill="#222221"></path>
                <path d="M142.92081,24.7027349 L144.47698,24.7027349 C144.874156,24.7362315 145.265363,24.5907765 145.540906,24.3071562 C145.816448,24.0235359 145.946659,23.6322862 145.895028,23.2431153 C145.895028,22.0917384 145.232044,21.8378915 144.449355,21.8378915 L142.92081,21.8378915 L142.92081,24.7027349 Z M142.92081,29 L142,29 L142,21.0219551 L144.458564,21.0219551 C145.078731,20.9312656 145.706999,21.1245017 146.164454,21.5466345 C146.621908,21.9687672 146.858417,22.5735368 146.80663,23.1887195 C146.86207,24.0699062 146.235281,24.8510618 145.35175,25.0019116 C146.232893,25.1416014 146.84348,25.9431502 146.732965,26.8151036 C146.732965,28.4741743 146.880295,28.5285701 147,28.773351 L147,28.9456042 L146.07919,28.9456042 C145.883931,28.3612223 145.796609,27.7471205 145.821363,27.1324122 C145.821363,26.0807608 145.35175,25.4733415 144.348066,25.4733415 L142.92081,25.4733415 L142.92081,29 Z" id="Shape" fill="#222221"></path>
                <polygon id="Shape" fill="#222221" points="148 21 148 29 152 29 152 28.1981777 148.886878 28.1981777 148.886878 25.2004556 151.782805 25.2004556 151.782805 24.3986333 148.886878 24.3986333 148.886878 21.8018223 151.9819 21.8018223 151.9819 21"></polygon>
                <g id="Group" transform="translate(157.000000, 21.000000)" fill="#222221">
                    <path d="M3.834,2.52 C3.834,1.566 3.519,0.783 2.421,0.783 C0.9,0.783 0.882,2.934 0.882,3.978 C0.882,5.58 0.972,7.443 2.421,7.443 C3.564,7.443 3.753,6.543 3.834,5.193 L4.734,5.193 C4.635,6.993 4.185,8.235 2.511,8.235 C0.18,8.235 0,5.868 0,4.005 C0,2.142 0.333,0 2.493,0 C3.987,0 4.743,1.107 4.743,2.52 L3.834,2.52 Z" id="Shape"></path>
                    <path d="M7.992,0.792 C6.642,0.792 6.327,2.187 6.327,3.951 C6.327,6.246 6.57,7.452 8.019,7.452 C9.468,7.452 9.711,6.246 9.711,3.96 C9.711,2.16 9.378,0.792 7.992,0.792 M5.418,4.095 C5.418,2.295 5.715,0 8.019,0 C10.323,0 10.611,2.286 10.611,4.095 C10.611,6.282 10.305,8.244 8.001,8.244 C5.697,8.244 5.4,6.282 5.4,4.095" id="Shape"></path>
                    <path d="M14.157,0 L15.705,6.165 C15.7866622,6.54763369 15.8408008,6.93562728 15.867,7.326 C15.9060805,6.93191945 15.9722368,6.54099578 16.065,6.156 L17.649,0 L19.197,0 L19.197,7.92 L18.297,7.92 L18.297,1.413 C18.297,1.071 18.297,0.711 18.297,0.414 C18.189,0.873 18.108,1.152 18.036,1.467 L16.398,7.92 L15.39,7.92 L13.734,1.386 C13.671,1.116 13.599,0.846 13.5,0.423 C13.5,0.837 13.5,1.107 13.5,1.44 L13.5,7.92 L12.6,7.92 L12.6,0 L14.157,0 Z" id="Shape"></path>
                    <path d="M22.5,3.789 L23.4,3.789 C24.606,3.789 25.326,3.6 25.326,2.25 C25.326,1.134 24.705,0.81 23.643,0.81 L22.5,0.81 L22.5,3.789 Z M22.5,7.92 L21.6,7.92 L21.6,0 L23.814,0 C25.254,0 26.19,0.666 26.19,2.223 C26.19,4.023 25.074,4.545 23.643,4.545 L22.5,4.545 L22.5,7.92 Z" id="Shape"></path>
                </g>
                <path d="M186.004831,21.6636364 L187.096618,25.9090909 L184.884058,25.9090909 L186.004831,21.6636364 Z M185.415459,21 L183,28.9818182 L184.033816,28.9818182 L184.661836,26.6909091 L187.338164,26.6909091 L188.033816,29 L189,29 L186.661836,21 L185.415459,21 Z" id="Shape" fill="#222221"></path>
                <path d="M191.477695,21 L193.791822,27.5124717 C193.894052,27.7845805 193.968401,28.0204082 194.070632,28.4195011 C194.070632,28.1292517 194.070632,27.8208617 194.070632,27.5124717 L194.070632,21 L195,21 L195,28.9818594 L193.513011,28.9818594 L191.236059,22.6326531 C191.093836,22.2443447 190.99111,21.8433193 190.929368,21.4353741 C190.929368,21.8344671 190.929368,22.2426304 190.929368,22.6507937 L190.929368,29 L190,29 L190,21 L191.477695,21 Z" id="Shape" fill="#222221"></path>
                <polygon id="Shape" fill="#222221" points="200.9728 21 198.9952 25.0091116 197.0272 21 196 21 198.5248 25.9020501 198.5248 29 199.4656 29 199.4656 25.9020501 202 21"></polygon>
            </g>
        </g>
    </g>
</svg>